<svg id="Layer_1" xmlns="http://www.w3.org/2000/svg" viewBox="0 0 553.77 430.85" fill="#17C4B6">
    <defs>

    </defs>
    <g id="Layer_2">
        <g id="Layer_1-2">
            <path class="cls-1" d="M373.08,22.16v28.17c0,3.31-2.69,6-6,6h-44.34c-3.31,0-6-2.69-6-6V23.2c-46.32,7.29-88.74,30.26-120.15,65.08h.24c3.83,0,6.94,3.11,6.94,6.94h0v41.7c0,2.44,.55,10,5,13.87,4.24,3.66,10.11,4.19,12.42,4.25h56.6c4.67,0,8.45,3.78,8.46,8.45v62.77c0,4.67-3.78,8.45-8.45,8.45h-62.74c-4.67,0-8.45-3.78-8.45-8.45v-58.09c-.05-7.57-6.01-13.79-13.57-14.17-.92-.17-1.85-.27-2.78-.31h-33.54c-8.65,23.06-13.08,47.48-13.05,72.11,0,113.25,91.8,205.05,205.05,205.05s205.05-91.8,205.05-205c0-105.09-78.93-191.64-180.69-203.69Zm-87.37,90h-29.33c-2.21,0-4-1.79-4-4v-29.29c0-2.21,1.79-4,4-4h29.33c2.19,.03,3.95,1.81,3.95,4v29.33c-.03,2.17-1.78,3.92-3.95,3.95h0Zm-57.68,187.85c-.03,2.19-1.81,3.95-4,3.95h-29.28c-2.19,0-3.97-1.76-4-3.95v-29.36c.03-2.19,1.81-3.95,4-3.95h29.33c2.19,0,3.97,1.76,4,3.95l-.05,29.36Zm83.41,72.9c0,3.31-2.69,6-6,6h-44.33c-3.31,0-6-2.69-6-6v-44.39c0-3.31,2.69-6,6-6h44.36c3.31,0,6,2.69,6,6l-.03,44.39ZM400.19,78.9c0-2.19,1.76-3.97,3.95-4h29.33c2.21,0,4,1.79,4,4v29.3c0,2.21-1.79,4-4,4h-29.33c-2.19-.03-3.95-1.81-3.95-4v-29.3Zm-24.41,221.1c-.03,2.17-1.78,3.92-3.95,3.95h-29.33c-2.17-.03-3.92-1.78-3.95-3.95v-29.36c.03-2.17,1.78-3.92,3.95-3.95h29.33c2.17,.03,3.92,1.78,3.95,3.95v29.36Zm77.49-70.65c0,2.98-2.41,5.39-5.39,5.39h-40c-2.98,0-5.39-2.41-5.39-5.39h0v-19.56c-.08-24.49-19.34-44.62-43.8-45.79h-9.82c-2.17-.03-3.92-1.78-3.95-3.95v-29.3c0-2.19,1.76-3.97,3.95-4h29.33c2.19,.03,3.95,1.81,3.95,4v7.34c.11,25.25,20.55,45.69,45.8,45.8h19.92c2.98,0,5.39,2.41,5.39,5.39h0v40.07ZM190.14,56.35h-44.36c-3.31,0-6-2.69-6-6V6c0-3.31,2.69-6,6-6h44.36c3.31,0,6,2.69,6,6V50.33c-.01,3.31-2.69,5.98-6,5.98v.04Zm-85.56,247.57h-29.33c-2.19,0-3.97-1.76-4-3.95v-29.33c.03-2.19,1.81-3.95,4-3.95h29.33c2.19,0,3.97,1.76,4,3.95v29.36c-.04,2.18-1.82,3.92-4,3.92Zm0-191.77h-29.33c-2.21,0-4-1.79-4-4v-29.28c0-2.21,1.79-4,4-4h29.33c2.21,0,4,1.79,4,4v29.33c-.03,2.19-1.81,3.95-4,3.95Zm-1.63,71.74h-19.95c-25.26-.1-45.71-20.54-45.82-45.8v-7.34c0-2.19-1.76-3.97-3.95-4H3.95C1.76,126.78,0,128.56,0,130.75v29.33c.04,2.16,1.79,3.89,3.95,3.92H13.77c24.43,1.22,43.63,21.34,43.71,45.8v1.69h0v17.83c0,2.98,2.41,5.39,5.39,5.39h40c2.98,0,5.39-2.41,5.39-5.39v-40c.02-2.96-2.35-5.39-5.31-5.43Z"></path>
        </g>
    </g>
</svg>
